<svg width="127" height="127" viewBox="0 0 127 127" fill="none" xmlns="http://www.w3.org/2000/svg">
<circle cx="64.1163" cy="62.8372" r="45.8372" fill="url(#paint0_linear_8_380)"/>
<g filter="url(#filter0_f_8_380)">
<circle cx="63.4884" cy="63.4651" r="36.4186" fill="#27DC55"/>
</g>
<g filter="url(#filter1_d_8_380)">
<path d="M76.4586 52.7417L74.8398 48.621L71.8964 41.2627C69.3946 34.9346 63.3608 30.814 56.5912 30.814H37.9012C31.1315 30.814 25.0977 34.9346 22.5959 41.2627L19.6526 48.621L18.0338 52.7417C14.5018 54.0661 12 57.451 12 61.4244V68.4884C12 70.9902 12.883 73.0505 14.3547 74.6693V82.6163C14.3547 85.2653 16.415 87.3256 19.064 87.3256H23.7733C26.2751 87.3256 28.4826 85.2653 28.4826 82.6163V77.907H66.157V82.6163C66.157 85.2653 68.2173 87.3256 70.8663 87.3256H75.5756C78.0774 87.3256 80.2849 85.2653 80.2849 82.6163V74.6693C81.6094 73.0505 82.6395 70.9902 82.6395 68.4884V61.4244C82.6395 57.451 79.9906 54.0661 76.4586 52.7417ZM31.2787 44.7947C32.456 41.9986 34.9578 40.2326 37.9012 40.2326H56.5912C59.5345 40.2326 62.0363 41.9986 63.2137 44.7947L66.157 52.0058H28.4826L31.2787 44.7947ZM23.7733 68.4884C20.8299 68.4884 19.064 66.7224 19.064 63.7791C19.064 60.9829 20.8299 59.0698 23.7733 59.0698C26.5694 59.0698 30.8372 63.3376 30.8372 66.1337C30.8372 68.9299 26.5694 68.4884 23.7733 68.4884ZM70.8663 68.4884C67.923 68.4884 63.8023 68.9299 63.8023 66.1337C63.8023 63.3376 67.923 59.0698 70.8663 59.0698C73.6624 59.0698 75.5756 60.9829 75.5756 63.7791C75.5756 66.7224 73.6624 68.4884 70.8663 68.4884Z" fill="url(#paint1_radial_8_380)"/>
</g>
<defs>
<filter id="filter0_f_8_380" x="0.0697632" y="0.0465088" width="126.837" height="126.837" filterUnits="userSpaceOnUse" color-interpolation-filters="sRGB">
<feFlood flood-opacity="0" result="BackgroundImageFix"/>
<feBlend mode="normal" in="SourceGraphic" in2="BackgroundImageFix" result="shape"/>
<feGaussianBlur stdDeviation="13.5" result="effect1_foregroundBlur_8_380"/>
</filter>
<filter id="filter1_d_8_380" x="8" y="30.814" width="78.6395" height="64.5116" filterUnits="userSpaceOnUse" color-interpolation-filters="sRGB">
<feFlood flood-opacity="0" result="BackgroundImageFix"/>
<feColorMatrix in="SourceAlpha" type="matrix" values="0 0 0 0 0 0 0 0 0 0 0 0 0 0 0 0 0 0 127 0" result="hardAlpha"/>
<feOffset dy="4"/>
<feGaussianBlur stdDeviation="2"/>
<feComposite in2="hardAlpha" operator="out"/>
<feColorMatrix type="matrix" values="0 0 0 0 0.0540625 0 0 0 0 0.720833 0 0 0 0 0.223518 0 0 0 1 0"/>
<feBlend mode="normal" in2="BackgroundImageFix" result="effect1_dropShadow_8_380"/>
<feBlend mode="normal" in="SourceGraphic" in2="effect1_dropShadow_8_380" result="shape"/>
</filter>
<linearGradient id="paint0_linear_8_380" x1="109.953" y1="17" x2="45.3146" y2="92.5984" gradientUnits="userSpaceOnUse">
<stop stop-color="#51FE3B"/>
<stop offset="1" stop-color="#27DC55"/>
</linearGradient>
<radialGradient id="paint1_radial_8_380" cx="0" cy="0" r="1" gradientUnits="userSpaceOnUse" gradientTransform="translate(94.3465 18.2558) rotate(132.557) scale(102.671 102.301)">
<stop stop-color="white"/>
<stop offset="1" stop-color="#F6F6F6"/>
</radialGradient>
</defs>
</svg>
