<svg width="127" height="127" viewBox="0 0 127 127" fill="none" xmlns="http://www.w3.org/2000/svg">
<circle cx="64.1163" cy="62.8372" r="45.8372" fill="url(#paint0_linear_8_379)"/>
<g filter="url(#filter0_f_8_379)">
<circle cx="63.4884" cy="63.4651" r="36.4186" fill="#27DC55"/>
</g>
<g filter="url(#filter1_d_8_379)">
<path d="M79.9906 57.0095L76.7529 44.5004C75.2812 39.3496 70.5719 35.5233 65.4212 35.5233H63.8023V30.814C63.8023 28.3122 61.5948 26.1047 59.093 26.1047H40.2558C37.6068 26.1047 35.5465 28.3122 35.5465 30.814V35.5233H33.7805C28.6297 35.5233 23.9204 39.3496 22.5959 44.5004L19.3583 57.0095C15.0905 58.0396 12 61.7188 12 66.1337V73.1977C12 76.7297 13.766 79.8201 16.7093 81.439V87.3256C16.7093 89.9746 18.7696 92.0349 21.4186 92.0349H26.1279C28.6297 92.0349 30.8372 89.9746 30.8372 87.3256V82.6163H68.5116V87.3256C68.5116 89.9746 70.5719 92.0349 73.2209 92.0349H77.9302C80.4321 92.0349 82.6395 89.9746 82.6395 87.3256V81.439C85.4357 79.8201 87.3488 76.7297 87.3488 73.1977V66.1337C87.3488 61.7188 84.1112 58.0396 79.9906 57.0095ZM26.1279 73.1977C23.4789 73.1977 21.4186 71.1374 21.4186 68.4884C21.4186 65.9866 23.4789 63.7791 26.1279 63.7791C28.6297 63.7791 30.8372 65.9866 30.8372 68.4884C30.8372 71.1374 28.6297 73.1977 26.1279 73.1977ZM29.0712 56.7151L31.573 47.0022C31.8674 45.8249 33.0447 44.9419 33.7805 44.9419H65.4212C66.157 44.9419 67.3343 45.8249 67.6286 46.855L70.1305 56.7151H29.0712ZM73.2209 73.1977C70.5719 73.1977 68.5116 71.1374 68.5116 68.4884C68.5116 65.9866 70.5719 63.7791 73.2209 63.7791C75.7227 63.7791 77.9302 65.9866 77.9302 68.4884C77.9302 71.1374 75.7227 73.1977 73.2209 73.1977Z" fill="url(#paint1_radial_8_379)"/>
</g>
<defs>
<filter id="filter0_f_8_379" x="0.0697632" y="0.0465088" width="126.837" height="126.837" filterUnits="userSpaceOnUse" color-interpolation-filters="sRGB">
<feFlood flood-opacity="0" result="BackgroundImageFix"/>
<feBlend mode="normal" in="SourceGraphic" in2="BackgroundImageFix" result="shape"/>
<feGaussianBlur stdDeviation="13.5" result="effect1_foregroundBlur_8_379"/>
</filter>
<filter id="filter1_d_8_379" x="8" y="26.1047" width="83.3488" height="73.9302" filterUnits="userSpaceOnUse" color-interpolation-filters="sRGB">
<feFlood flood-opacity="0" result="BackgroundImageFix"/>
<feColorMatrix in="SourceAlpha" type="matrix" values="0 0 0 0 0 0 0 0 0 0 0 0 0 0 0 0 0 0 127 0" result="hardAlpha"/>
<feOffset dy="4"/>
<feGaussianBlur stdDeviation="2"/>
<feComposite in2="hardAlpha" operator="out"/>
<feColorMatrix type="matrix" values="0 0 0 0 0.0540625 0 0 0 0 0.720833 0 0 0 0 0.223518 0 0 0 1 0"/>
<feBlend mode="normal" in2="BackgroundImageFix" result="effect1_dropShadow_8_379"/>
<feBlend mode="normal" in="SourceGraphic" in2="effect1_dropShadow_8_379" result="shape"/>
</filter>
<linearGradient id="paint0_linear_8_379" x1="109.953" y1="17" x2="45.3146" y2="92.5984" gradientUnits="userSpaceOnUse">
<stop stop-color="#51FE3B"/>
<stop offset="1" stop-color="#27DC55"/>
</linearGradient>
<radialGradient id="paint1_radial_8_379" cx="0" cy="0" r="1" gradientUnits="userSpaceOnUse" gradientTransform="translate(85.5558 18.2558) rotate(132.557) scale(102.671 102.301)">
<stop stop-color="white"/>
<stop offset="1" stop-color="#F6F6F6"/>
</radialGradient>
</defs>
</svg>
