<svg width="197" height="48" viewBox="0 0 197 48" fill="none" xmlns="http://www.w3.org/2000/svg">
<g clip-path="url(#clip0_2_201)">
<path fill-rule="evenodd" clip-rule="evenodd" d="M194.197 13.7383C189.41 14.2217 187.843 14.3709 185.938 14.0128C162.898 7.57346 139.996 0.805832 114.671 0.018066C99.9197 -0.28033 82.5219 3.13332 58.8064 15.4034C33.2282 18.2739 16.8311 23.1259 0 27.8763C18.7964 23.4123 37.2672 18.6499 58.3844 17.898C74.9985 9.66223 91.6307 1.45037 114.671 1.82038C138.513 2.33362 161.143 8.82672 183.84 14.9856C181.381 15.6481 161.288 14.162 158.497 15.5406C171.85 15.9823 189.712 18.8111 194.848 15.7734C194.715 20.7506 194.161 24.6596 186.36 28.5447C181.127 30.8364 171.144 33.522 163.537 35.9211C175.443 33.4086 184.6 31.654 191.122 27.6018C194.124 25.7338 196.421 23.0721 197 16.2329C197.066 14.0845 195.939 13.5056 194.197 13.7383Z" fill="url(#paint0_linear_2_201)"/>
<path fill-rule="evenodd" clip-rule="evenodd" d="M134.769 16.0836C114.773 18.793 97.8459 18.3096 80.5325 18.4648C88.6467 18.8706 112.422 19.8075 132.057 18.5722C136.144 18.3156 145.036 17.0683 147.423 13.028C148.297 11.2197 148.146 9.88288 147.326 8.85043C144.867 13.9948 139.912 15.3853 134.769 16.0836Z" fill="url(#paint1_linear_2_201)"/>
<path d="M49.1973 48H48.1845V46.7706H45.1462V48H44.1335V46.0007H44.4288C44.6941 46.0007 44.881 45.8277 44.9955 45.4756C45.11 45.1294 45.1884 44.5744 45.2246 43.8105L45.3391 41.7635H48.6005V45.9948H49.1973V48ZM46.2373 43.8165C46.2132 44.2999 46.159 44.7236 46.0806 45.0877C45.9962 45.4517 45.8817 45.7561 45.743 46.0007H47.5937V42.5393H46.3157L46.2373 43.8165ZM52.5249 44.5744H50.6501V46.0067H52.8806V46.7766H49.6373V41.7755H52.8685V42.5513H50.6501V43.8105H52.5249V44.5744ZM57.1125 42.5453H55.6657V46.7766H54.6529V42.5453H53.2302V41.7695H57.1125V42.5453ZM60.5546 44.5744H58.6798V46.0067H60.9103V46.7766H57.6671V41.7755H60.8983V42.5513H58.6798V43.8105H60.5546V44.5744ZM64.6539 41.7695H65.6667V46.7706H64.6539V43.4286L64.6358 43.4226L62.5922 46.7706H61.5795V41.7695H62.5922V45.1115L62.6103 45.1175L64.6539 41.7695ZM64.7986 40.2536L64.8046 40.2775C64.8167 40.5699 64.7142 40.8087 64.4972 40.9877C64.2802 41.1727 63.9908 41.2622 63.6231 41.2622C63.2553 41.2622 62.966 41.1667 62.7429 40.9877C62.5259 40.8027 62.4234 40.564 62.4355 40.2775L62.4415 40.2536H63.183C63.183 40.373 63.2192 40.4744 63.2855 40.552C63.3578 40.6296 63.4663 40.6714 63.617 40.6714C63.7617 40.6714 63.8702 40.6356 63.9426 40.552C64.0149 40.4744 64.045 40.373 64.045 40.2536H64.7986ZM70.6702 41.7695V46.7706H69.6574V42.5393H68.2227V44.0433C68.2227 45.0101 68.078 45.7023 67.7826 46.132C67.4872 46.5558 67.0351 46.7706 66.4202 46.7706H66.2695V46.0007H66.4082C66.7277 46.0007 66.9387 45.8635 67.0472 45.583C67.1557 45.3025 67.2099 44.7952 67.2099 44.0492V41.7695H70.6702ZM74.6308 41.7695H75.6436V46.7706H74.6308V43.4286L74.6127 43.4226L72.5691 46.7706H71.5564V41.7695H72.5691V45.1115L72.5872 45.1175L74.6308 41.7695ZM80.6471 46.7706H79.6343V44.6938H77.5787V46.7706H76.5599V41.7695H77.5726V43.9179H79.6283V41.7695H80.6411V46.7706H80.6471ZM84.8609 42.5453H82.5822V46.7766H81.5694V41.7755H84.8609V42.5453ZM91.0821 45.1175L91.0882 45.1354C91.0942 45.6725 90.9314 46.0903 90.5938 46.3887C90.2563 46.693 89.7921 46.8422 89.1953 46.8422C88.5864 46.8422 88.0981 46.6512 87.7304 46.2633C87.3566 45.8754 87.1698 45.3801 87.1698 44.7654V43.7747C87.1698 43.166 87.3506 42.6647 87.7123 42.2768C88.074 41.8888 88.5502 41.6979 89.141 41.6979C89.7559 41.6979 90.2382 41.8471 90.5878 42.1455C90.9375 42.4439 91.1002 42.8616 91.0942 43.4047L91.0882 43.4286H90.0995C90.0995 43.1063 90.0212 42.8676 89.8644 42.7124C89.7077 42.5573 89.4665 42.4797 89.141 42.4797C88.8396 42.4797 88.5985 42.599 88.4297 42.8437C88.2609 43.0824 88.1765 43.3987 88.1765 43.7807V44.7833C88.1765 45.1652 88.2669 45.4815 88.4478 45.7262C88.6286 45.9709 88.8758 46.0903 89.1953 46.0903C89.4967 46.0903 89.7258 46.0127 89.8765 45.8575C90.0272 45.7023 90.0995 45.4577 90.0995 45.1354H91.0821V45.1175ZM95.2357 42.5453H93.7889V46.7766H92.7761V42.5453H91.3534V41.7695H95.2357V42.5453ZM97.5385 43.9896L97.6289 44.2939L97.653 44.2999L98.714 41.7695H99.7871L97.9424 45.8217C97.7977 46.144 97.6229 46.3946 97.4179 46.5737C97.213 46.7527 96.9236 46.8422 96.5559 46.8422C96.4172 46.8422 96.2966 46.8303 96.1821 46.8064C96.0736 46.7825 95.947 46.7467 95.8083 46.699L95.9289 45.9828C96.0314 46.0127 96.1279 46.0366 96.2062 46.0485C96.2846 46.0664 96.369 46.0724 96.4474 46.0724C96.6342 46.0724 96.7849 46.0306 96.8874 45.953C96.9899 45.8694 97.0683 45.7501 97.1286 45.589L97.2069 45.398L95.4286 41.7635H96.5197L97.5385 43.9896ZM104.7 48H103.687V46.7706H100.649V48H99.6363V46.0007H99.9317C100.197 46.0007 100.384 45.8277 100.498 45.4756C100.613 45.1294 100.691 44.5744 100.727 43.8105L100.842 41.7635H104.103V45.9948H104.7V48ZM101.74 43.8165C101.716 44.2999 101.662 44.7236 101.583 45.0877C101.499 45.4517 101.385 45.7561 101.246 46.0007H103.097V42.5393H101.819L101.74 43.8165ZM108.172 41.7695H109.185V46.7706H108.172V43.4286L108.154 43.4226L106.111 46.7706H105.098V41.7695H106.111V45.1115L106.129 45.1175L108.172 41.7695ZM110.626 46.7706H109.529L110.62 44.5386C110.355 44.4013 110.156 44.2283 110.023 44.0134C109.891 43.7986 109.824 43.5479 109.824 43.2555C109.824 42.784 109.987 42.42 110.319 42.1574C110.65 41.8948 111.102 41.7695 111.681 41.7695H113.435V46.7706H112.422V44.843H111.566L110.626 46.7706ZM112.422 42.5453H111.681C111.404 42.5453 111.193 42.611 111.048 42.7423C110.903 42.8736 110.831 43.0645 110.831 43.3032C110.831 43.542 110.903 43.7389 111.048 43.8881C111.193 44.0373 111.404 44.1149 111.675 44.1149H112.416V42.5453H112.422Z" fill="white"/>
<path d="M10.7967 30.5916H8.3191V37.6158H6.35989V30.5916H3.88828V29.016H10.7907V30.5916H10.7967ZM19.2485 37.6098H16.9999L15.6496 35.3957C15.5471 35.2286 15.4506 35.0794 15.3602 34.9481C15.2698 34.8169 15.1733 34.7035 15.0769 34.608C14.9804 34.5125 14.884 34.4409 14.7815 34.3931C14.679 34.3454 14.5645 34.3215 14.4439 34.3215H13.9194V37.6098H11.9602V29.016H15.0588C17.1687 29.016 18.2237 29.7978 18.2237 31.3555C18.2237 31.6539 18.1754 31.9343 18.085 32.185C17.9946 32.4416 17.862 32.6684 17.6932 32.8713C17.5244 33.0742 17.3194 33.2473 17.0783 33.3965C16.8371 33.5457 16.5719 33.6591 16.2765 33.7426V33.7665C16.4091 33.8083 16.5297 33.868 16.6503 33.9634C16.7708 34.053 16.8854 34.1604 16.9999 34.2797C17.1144 34.3991 17.223 34.5304 17.3254 34.6677C17.4279 34.8049 17.5244 34.9422 17.6088 35.0735L19.2485 37.6098ZM13.9194 30.4662V32.8594H14.7694C15.1914 32.8594 15.529 32.74 15.7822 32.5013C16.0414 32.2566 16.168 31.9522 16.168 31.5942C16.168 30.8422 15.7159 30.4662 14.8056 30.4662H13.9194ZM23.613 37.759C22.3712 37.759 21.3584 37.3592 20.5747 36.5595C19.791 35.7598 19.3992 34.7154 19.3992 33.4263C19.3992 32.0656 19.7971 30.9675 20.5928 30.132C21.3885 29.2906 22.4435 28.8728 23.7516 28.8728C24.9935 28.8728 25.9942 29.2786 26.7598 30.0783C27.5254 30.884 27.9052 31.9403 27.9052 33.2592C27.9052 34.608 27.5073 35.7001 26.7116 36.5296C25.9218 37.3472 24.885 37.759 23.613 37.759ZM23.6974 30.5379C23.0102 30.5379 22.4676 30.7945 22.0637 31.3017C21.6598 31.809 21.4609 32.4834 21.4609 33.3249C21.4609 34.1783 21.6658 34.8467 22.0637 35.348C22.4676 35.8433 22.9981 36.088 23.6492 36.088C24.3243 36.088 24.8609 35.8493 25.2527 35.3659C25.6506 34.8825 25.8435 34.2141 25.8435 33.3607C25.8435 32.4715 25.6506 31.7732 25.2708 31.2779C24.885 30.7825 24.3605 30.5379 23.6974 30.5379ZM35.6456 29.016L32.8183 34.5543V37.6098H30.8651V34.5901L28.1101 29.016H30.3466L31.7452 32.2208C31.7693 32.2805 31.8356 32.5132 31.9442 32.925H31.9683C32.0225 32.6386 32.0828 32.4118 32.1551 32.2447L33.5778 29.016H35.6456ZM43.3317 37.6098H41.1976L40.5767 35.6941H37.4902L36.8753 37.6098H34.7534L37.9182 29.0101H40.2391L43.3317 37.6098ZM40.1306 34.2141L39.1962 31.3256C39.1299 31.1108 39.0757 30.8482 39.0516 30.5498H39.0033C38.9852 30.8004 38.931 31.0511 38.8526 31.2958L37.9062 34.2081H40.1306V34.2141ZM52.2295 37.6098H50.2582L46.6774 32.2089C46.4664 31.8926 46.3217 31.6539 46.2434 31.4987H46.2193C46.2494 31.8031 46.2675 32.2685 46.2675 32.8892V37.6158H44.4168V29.016H46.5267L49.9749 34.2499C50.1316 34.4886 50.2763 34.7214 50.409 34.9541H50.4331C50.4029 34.7572 50.3848 34.3633 50.3848 33.7725V29.016H52.2355V37.6098H52.2295ZM57.8841 37.759C56.6422 37.759 55.6295 37.3592 54.8458 36.5595C54.0621 35.7598 53.6703 34.7154 53.6703 33.4263C53.6703 32.0656 54.0681 30.9675 54.8639 30.132C55.6596 29.2906 56.7146 28.8728 58.0227 28.8728C59.2646 28.8728 60.2653 29.2786 61.0309 30.0783C61.7965 30.884 62.1763 31.9403 62.1763 33.2592C62.1763 34.608 61.7784 35.7001 60.9827 36.5296C60.1929 37.3472 59.1561 37.759 57.8841 37.759ZM57.9685 30.5379C57.2813 30.5379 56.7387 30.7945 56.3348 31.3017C55.9309 31.809 55.732 32.4834 55.732 33.3249C55.732 34.1783 55.9369 34.8467 56.3348 35.348C56.7387 35.8433 57.2692 36.088 57.9203 36.088C58.5954 36.088 59.132 35.8493 59.5238 35.3659C59.9217 34.8825 60.1146 34.2141 60.1146 33.3607C60.1146 32.4715 59.9217 31.7732 59.5419 31.2779C59.1561 30.7825 58.6316 30.5379 57.9685 30.5379ZM70.851 29.016L67.8549 37.6158H65.6365L62.6826 29.016H64.7926L66.6011 35.0019C66.6975 35.3241 66.7578 35.6106 66.7759 35.8612H66.8121C66.8422 35.5927 66.9025 35.3003 66.9989 34.978L68.7954 29.016H70.851ZM71.3695 37.2816V35.3599C71.7191 35.6524 72.1049 35.8732 72.5149 36.0164C72.9248 36.1596 73.3407 36.2372 73.7627 36.2372C74.0099 36.2372 74.2269 36.2133 74.4078 36.1716C74.5946 36.1238 74.7453 36.0701 74.8659 35.9866C74.9925 35.909 75.0829 35.8195 75.1432 35.712C75.2035 35.6046 75.2336 35.4912 75.2336 35.3659C75.2336 35.1988 75.1854 35.0496 75.089 34.9183C74.9925 34.787 74.8599 34.6617 74.6911 34.5543C74.5223 34.4409 74.3234 34.3335 74.0943 34.232C73.8652 34.1305 73.618 34.0231 73.3528 33.9157C72.6776 33.6352 72.1712 33.295 71.8337 32.8892C71.5021 32.4834 71.3333 32 71.3333 31.4271C71.3333 30.9795 71.4237 30.5916 71.6046 30.2753C71.7854 29.953 72.0326 29.6904 72.3461 29.4815C72.6595 29.2727 73.0212 29.1235 73.4312 29.022C73.8411 28.9265 74.2812 28.8728 74.7393 28.8728C75.1914 28.8728 75.5953 28.9026 75.945 28.9564C76.2946 29.0101 76.6141 29.0936 76.9095 29.207V30.9974C76.7648 30.8959 76.6081 30.8064 76.4333 30.7348C76.2645 30.6572 76.0836 30.5975 75.9028 30.5438C75.7219 30.4961 75.5411 30.4603 75.3602 30.4304C75.1794 30.4066 75.0106 30.3946 74.8478 30.3946C74.6248 30.3946 74.4258 30.4125 74.245 30.4543C74.0641 30.4961 73.9074 30.5558 73.7868 30.6333C73.6602 30.7109 73.5638 30.8004 73.4975 30.9079C73.4312 31.0153 73.395 31.1346 73.395 31.2659C73.395 31.4092 73.4312 31.5405 73.5095 31.6539C73.5879 31.7672 73.6964 31.8747 73.8411 31.9821C73.9797 32.0835 74.1546 32.185 74.3535 32.2805C74.5524 32.376 74.7815 32.4774 75.0347 32.5848C75.3843 32.7281 75.6918 32.8832 75.9691 33.0444C76.2464 33.2055 76.4815 33.3905 76.6804 33.5934C76.8794 33.7963 77.0301 34.0291 77.1326 34.2917C77.235 34.5543 77.2893 34.8586 77.2893 35.2048C77.2893 35.6882 77.1989 36.088 77.012 36.4163C76.8311 36.7445 76.578 37.0071 76.2645 37.204C75.951 37.4069 75.5833 37.5502 75.1673 37.6397C74.7453 37.7292 74.3053 37.771 73.8411 37.771C73.3649 37.771 72.9127 37.7292 72.4847 37.6516C72.0567 37.5621 71.6829 37.4427 71.3695 37.2816ZM85.94 37.6098H83.4683L80.9364 33.8739C80.8882 33.8023 80.8099 33.6412 80.7074 33.3965H80.6772V37.6039H78.718V29.016H80.6772V33.0802H80.7074C80.7556 32.9668 80.84 32.8057 80.9485 32.6028L83.3478 29.016H85.6807L82.6545 33.116L85.94 37.6098ZM88.7311 37.6098H86.7719V29.016H88.7311V37.6098ZM92.6555 37.6098H90.6963V29.016H92.6555V37.6098Z" fill="url(#paint2_linear_2_201)"/>
<path d="M98.5573 37.6098V29.016H101.638C104.724 29.016 106.261 30.4125 106.261 33.2055C106.261 34.5423 105.84 35.6106 104.996 36.4103C104.152 37.21 103.036 37.6098 101.632 37.6098H98.5573ZM100.516 30.5916V36.0403H101.487C102.337 36.0403 103 35.7896 103.482 35.2824C103.965 34.781 104.206 34.0947 104.206 33.2234C104.206 32.4058 103.965 31.7613 103.488 31.2898C103.006 30.8183 102.337 30.5856 101.475 30.5856H100.516V30.5916ZM112.911 37.6098H107.702V29.016H112.712V30.5916H109.661V32.5073H112.501V34.0768H109.661V36.0462H112.911V37.6098ZM120.512 30.5916H118.035V37.6158H116.076V30.5916H113.61V29.016H120.512V30.5916ZM128.452 37.6098H126.318L125.697 35.6941H122.61L121.995 37.6098H119.873L123.038 29.0101H125.359L128.452 37.6098ZM125.257 34.2141L124.322 31.3256C124.256 31.1108 124.202 30.8482 124.178 30.5498H124.129C124.111 30.8004 124.057 31.0511 123.979 31.2958L123.032 34.2081H125.257V34.2141ZM131.496 37.6098H129.537V29.016H131.496V37.6098ZM138.64 37.6098H133.467V29.016H135.427V36.0403H138.64V37.6098ZM141.762 37.6098H139.803V29.016H141.762V37.6098ZM151.552 37.6098H149.581L146 32.2089C145.789 31.8926 145.645 31.6539 145.566 31.4987H145.542C145.572 31.8031 145.59 32.2686 145.59 32.8892V37.6158H143.74V29.016H145.85L149.298 34.2499C149.455 34.4886 149.599 34.7214 149.732 34.9541H149.756C149.726 34.7572 149.708 34.3633 149.708 33.7725V29.016H151.558V37.6098H151.552ZM160.661 37.0369C159.811 37.5203 158.762 37.759 157.496 37.759C156.104 37.759 155.001 37.3771 154.193 36.6132C153.391 35.8493 152.987 34.793 152.987 33.4502C152.987 32.1014 153.427 30.9974 154.307 30.1499C155.187 29.2965 156.357 28.8728 157.822 28.8728C158.744 28.8728 159.552 28.9981 160.257 29.2488V31.063C159.588 30.6811 158.768 30.4901 157.798 30.4901C156.984 30.4901 156.327 30.7527 155.814 31.2719C155.302 31.7911 155.049 32.4894 155.049 33.3607C155.049 34.2439 155.278 34.9243 155.736 35.4136C156.194 35.897 156.815 36.1358 157.593 36.1358C158.063 36.1358 158.437 36.0701 158.708 35.9388V34.2559H156.972V32.7102H160.667V37.0369H160.661Z" fill="white"/>
<path d="M120.754 44.6878C120.754 45.3025 120.561 45.8098 120.169 46.2096C119.777 46.6095 119.271 46.8064 118.644 46.8124C118.017 46.8124 117.51 46.6095 117.125 46.2096C116.739 45.8098 116.54 45.3025 116.54 44.6878V43.7867C116.54 43.1779 116.733 42.6707 117.119 42.2648C117.504 41.865 118.011 41.6621 118.632 41.6621C119.259 41.6621 119.771 41.865 120.163 42.2648C120.555 42.6647 120.754 43.172 120.754 43.7867V44.6878ZM119.747 43.7807C119.747 43.3928 119.65 43.0705 119.451 42.8199C119.253 42.5692 118.981 42.4439 118.638 42.4439C118.294 42.4439 118.029 42.5692 117.836 42.8199C117.643 43.0705 117.553 43.3868 117.553 43.7807V44.6878C117.553 45.0817 117.649 45.404 117.842 45.6546C118.035 45.9053 118.3 46.0306 118.65 46.0306C118.999 46.0306 119.265 45.9053 119.464 45.6546C119.656 45.404 119.753 45.0817 119.753 44.6878V43.7807H119.747ZM125.534 41.7337V46.7348H124.521V42.5036H123.087V44.0075C123.087 44.9743 122.942 45.6666 122.646 46.0962C122.351 46.52 121.899 46.7348 121.284 46.7348H121.133V45.965H121.272C121.592 45.965 121.803 45.8277 121.911 45.5472C122.02 45.2667 122.074 44.7594 122.074 44.0134V41.7337H125.534ZM129.35 44.5386H127.475V45.9709H129.706V46.7408H126.462V41.7397H129.694V42.5155H127.475V43.7747H129.35V44.5386ZM133.702 42.5095H131.418V46.7408H130.405V41.7397H133.696V42.5095H133.702ZM136.283 45.6606H134.643L134.305 46.7408H133.25L134.956 41.7397H135.993L137.693 46.7408H136.632L136.283 45.6606ZM134.896 44.8728H136.035L135.475 43.1123H135.451L134.896 44.8728ZM143.462 42.5095H142.016V46.7408H141.003V42.5095H139.58V41.7337H143.462V42.5095ZM145.03 44.9206V46.7348H144.017V41.7337H145.952C146.531 41.7337 146.989 41.8829 147.326 42.1753C147.658 42.4677 147.827 42.8557 147.827 43.3331C147.827 43.8105 147.658 44.1984 147.326 44.4849C146.995 44.7773 146.537 44.9206 145.952 44.9206H145.03ZM145.03 44.1507H145.952C146.235 44.1507 146.446 44.0731 146.597 43.9239C146.742 43.7688 146.814 43.5778 146.814 43.345C146.814 43.1063 146.742 42.9034 146.597 42.7482C146.452 42.5931 146.235 42.5155 145.952 42.5155H145.03V44.1507ZM152.637 44.6878C152.637 45.3025 152.445 45.8098 152.053 46.2096C151.661 46.6095 151.154 46.8064 150.528 46.8124C149.901 46.8124 149.394 46.6095 149.008 46.2096C148.623 45.8098 148.424 45.3025 148.424 44.6878V43.7867C148.424 43.1779 148.617 42.6707 149.002 42.2648C149.388 41.865 149.895 41.6621 150.515 41.6621C151.142 41.6621 151.655 41.865 152.047 42.2648C152.439 42.6647 152.637 43.172 152.637 43.7867V44.6878ZM151.625 43.7807C151.625 43.3928 151.528 43.0705 151.329 42.8199C151.13 42.5692 150.859 42.4439 150.515 42.4439C150.172 42.4439 149.907 42.5692 149.714 42.8199C149.521 43.0705 149.43 43.3868 149.43 43.7807V44.6878C149.43 45.0817 149.527 45.404 149.72 45.6546C149.913 45.9053 150.178 46.0306 150.528 46.0306C150.877 46.0306 151.142 45.9053 151.341 45.6546C151.534 45.404 151.631 45.0817 151.631 44.6878V43.7807H151.625ZM153.958 46.7348H152.861L153.952 44.5028C153.686 44.3655 153.487 44.1925 153.355 43.9776C153.222 43.7628 153.156 43.5121 153.156 43.2197C153.156 42.7482 153.319 42.3842 153.65 42.1216C153.982 41.859 154.434 41.7337 155.013 41.7337H156.767V46.7348H155.754V44.8072H154.898L153.958 46.7348ZM155.754 42.5095H155.013C154.735 42.5095 154.524 42.5752 154.38 42.7065C154.235 42.8378 154.163 43.0287 154.163 43.2675C154.163 43.5062 154.235 43.7031 154.38 43.8523C154.524 44.0015 154.735 44.0791 155.007 44.0791H155.748V42.5095H155.754ZM161.698 46.7348H160.685V44.658H158.63V46.7348H157.617V41.7337H158.63V43.8821H160.685V41.7337H161.698V46.7348ZM166.714 44.6878C166.714 45.3025 166.521 45.8098 166.129 46.2096C165.737 46.6095 165.231 46.8064 164.604 46.8124C163.977 46.8124 163.47 46.6095 163.085 46.2096C162.699 45.8098 162.5 45.3025 162.5 44.6878V43.7867C162.5 43.1779 162.693 42.6707 163.079 42.2648C163.464 41.865 163.971 41.6621 164.592 41.6621C165.219 41.6621 165.731 41.865 166.123 42.2648C166.515 42.6647 166.714 43.172 166.714 43.7867V44.6878ZM165.707 43.7807C165.707 43.3928 165.61 43.0705 165.412 42.8199C165.213 42.5692 164.941 42.4439 164.598 42.4439C164.254 42.4439 163.989 42.5692 163.796 42.8199C163.603 43.0705 163.513 43.3868 163.513 43.7807V44.6878C163.513 45.0817 163.609 45.404 163.802 45.6546C163.995 45.9053 164.26 46.0306 164.61 46.0306C164.959 46.0306 165.225 45.9053 165.424 45.6546C165.616 45.404 165.713 45.0817 165.713 44.6878V43.7807H165.707ZM167.515 46.7348V41.7337H169.173C169.77 41.7337 170.234 41.8471 170.566 42.0798C170.897 42.3126 171.066 42.6528 171.066 43.1063C171.066 43.3331 171.006 43.542 170.885 43.721C170.765 43.9001 170.59 44.0373 170.361 44.1268C170.674 44.1865 170.915 44.3178 171.072 44.5327C171.229 44.7475 171.313 44.9922 171.313 45.2786C171.313 45.7561 171.15 46.1201 170.837 46.3648C170.518 46.6095 170.065 46.7348 169.481 46.7348H167.515ZM168.528 44.5207V45.965H169.469C169.74 45.965 169.939 45.9053 170.083 45.7919C170.222 45.6785 170.294 45.5054 170.294 45.2786C170.294 45.034 170.228 44.849 170.089 44.7177C169.951 44.5864 169.74 44.5207 169.463 44.5207H168.528ZM168.528 43.8284H169.203C169.475 43.8284 169.686 43.7747 169.83 43.6613C169.975 43.5539 170.047 43.3928 170.047 43.1779C170.047 42.9452 169.975 42.7781 169.824 42.6647C169.68 42.5573 169.457 42.5036 169.167 42.5036H168.528V43.8284ZM175.834 45.0817L175.841 45.0996C175.847 45.6367 175.684 46.0545 175.346 46.3529C175.009 46.6572 174.544 46.8064 173.948 46.8064C173.339 46.8064 172.85 46.6155 172.483 46.2275C172.109 45.8396 171.922 45.3443 171.922 44.7296V43.7389C171.922 43.1302 172.103 42.6289 172.465 42.241C172.826 41.8531 173.303 41.6621 173.893 41.6621C174.508 41.6621 174.991 41.8113 175.34 42.1097C175.69 42.4081 175.853 42.8258 175.847 43.3689L175.841 43.3928H174.858C174.858 43.0705 174.78 42.8318 174.623 42.6766C174.466 42.5215 174.225 42.4439 173.899 42.4439C173.598 42.4439 173.357 42.5632 173.188 42.8079C173.019 43.0466 172.935 43.3629 172.935 43.7449V44.7475C172.935 45.1294 173.025 45.4457 173.206 45.6904C173.387 45.9351 173.634 46.0545 173.954 46.0545C174.255 46.0545 174.484 45.9769 174.635 45.8217C174.786 45.6666 174.858 45.4219 174.858 45.0996H175.834V45.0817ZM177.95 44.646H177.577V46.7348H176.564V41.7337H177.577V43.7807H177.86L179.247 41.7337H180.5L178.752 44.0612L180.639 46.7348H179.349L177.95 44.646ZM185.076 44.6878C185.076 45.3025 184.883 45.8098 184.491 46.2096C184.099 46.6095 183.593 46.8064 182.966 46.8124C182.339 46.8124 181.833 46.6095 181.447 46.2096C181.061 45.8098 180.862 45.3025 180.862 44.6878V43.7867C180.862 43.1779 181.055 42.6707 181.441 42.2648C181.827 41.865 182.333 41.6621 182.954 41.6621C183.581 41.6621 184.093 41.865 184.485 42.2648C184.877 42.6647 185.076 43.172 185.076 43.7867V44.6878ZM184.069 43.7807C184.069 43.3928 183.973 43.0705 183.774 42.8199C183.575 42.5692 183.304 42.4439 182.96 42.4439C182.616 42.4439 182.351 42.5692 182.158 42.8199C181.965 43.0705 181.875 43.3868 181.875 43.7807V44.6878C181.875 45.0817 181.971 45.404 182.164 45.6546C182.357 45.9053 182.622 46.0306 182.972 46.0306C183.322 46.0306 183.587 45.9053 183.786 45.6546C183.979 45.404 184.075 45.0817 184.075 44.6878V43.7807H184.069ZM189.163 42.5095H186.884V46.7408H185.872V41.7397H189.163V42.5095ZM193.684 44.6878C193.684 45.3025 193.492 45.8098 193.1 46.2096C192.708 46.6095 192.201 46.8064 191.574 46.8124C190.948 46.8124 190.441 46.6095 190.055 46.2096C189.67 45.8098 189.471 45.3025 189.471 44.6878V43.7867C189.471 43.1779 189.664 42.6707 190.049 42.2648C190.435 41.865 190.942 41.6621 191.562 41.6621C192.189 41.6621 192.702 41.865 193.094 42.2648C193.485 42.6647 193.684 43.172 193.684 43.7867V44.6878ZM192.672 43.7807C192.672 43.3928 192.575 43.0705 192.376 42.8199C192.177 42.5692 191.906 42.4439 191.562 42.4439C191.219 42.4439 190.954 42.5692 190.761 42.8199C190.568 43.0705 190.477 43.3868 190.477 43.7807V44.6878C190.477 45.0817 190.574 45.404 190.767 45.6546C190.96 45.9053 191.225 46.0306 191.574 46.0306C191.924 46.0306 192.189 45.9053 192.388 45.6546C192.581 45.404 192.678 45.0817 192.678 44.6878V43.7807H192.672Z" fill="url(#paint3_linear_2_201)"/>
</g>
<defs>
<linearGradient id="paint0_linear_2_201" x1="0" y1="17.9592" x2="197.002" y2="17.9592" gradientUnits="userSpaceOnUse">
<stop stop-color="#51FE3B"/>
<stop offset="1" stop-color="#27DC55"/>
</linearGradient>
<linearGradient id="paint1_linear_2_201" x1="80.5297" y1="14.0152" x2="148.013" y2="14.0152" gradientUnits="userSpaceOnUse">
<stop stop-color="#51FE3B"/>
<stop offset="1" stop-color="#27DC55"/>
</linearGradient>
<linearGradient id="paint2_linear_2_201" x1="3.89063" y1="33.3153" x2="92.658" y2="33.3153" gradientUnits="userSpaceOnUse">
<stop stop-color="#51FE3B"/>
<stop offset="1" stop-color="#27DC55"/>
</linearGradient>
<linearGradient id="paint3_linear_2_201" x1="116.539" y1="44.2356" x2="193.682" y2="44.2356" gradientUnits="userSpaceOnUse">
<stop stop-color="#51FE3B"/>
<stop offset="1" stop-color="#27DC55"/>
</linearGradient>
<clipPath id="clip0_2_201">
<rect width="197" height="48" fill="white"/>
</clipPath>
</defs>
</svg>
